<?xml version="1.0" encoding="utf-8" ?>
<svg baseProfile="full" height="200mm" version="1.1" viewBox="0,0,200,200" width="200mm" xmlns="http://www.w3.org/2000/svg" xmlns:ev="http://www.w3.org/2001/xml-events" xmlns:xlink="http://www.w3.org/1999/xlink"><defs /><rect fill="#1a1a1a" height="200" width="200" x="0" y="0" /><text alignment-baseline="middle" fill="#e1ed5e" style="dominant-baseline: central; font-size:9.0px; font-family:Arial;" text-anchor="middle" x="100.0" y="100.0">2022</text><line stroke="#e1ed5e" stroke-width="0.3" x1="100.0" x2="100.0" y1="15.0" y2="10.0" /><path d="M 100.0 14.0 a86.0,86.0 0 0,1 42.46469731375804,11.215312516191453" fill="none" id="id13" stroke="none" /><text fill="#e1ed5e" style="font-size:6.75px; font-family:Arial;" text-anchor="middle"><textPath startOffset="22.20632615414155" xlink:href="#id13">January</textPath></text><line stroke="#e1ed5e" stroke-width="0.3" x1="143.23703022742887" x2="145.7803849466894" y1="26.81831364943548" y2="22.513508569990506" /><path d="M 143.74570117128098 25.957352633546492 a86.0,86.0 0 0,1 28.547481713284135,27.462654790039103" fill="none" id="id14" stroke="none" /><text fill="#e1ed5e" style="font-size:6.75px; font-family:Arial;" text-anchor="middle"><textPath startOffset="19.985693538727396" xlink:href="#id14">February</textPath></text><path d="M 117.65298651832404 88.62581576622439 l 12.345876764840352 -7.954703681726685 a35.68666006131758,35.68666006131758 0 0,0 0.32827037647610324,0.5192449012837657 l -12.480974737562411 7.741011132728714" fill="#ff5a08" stroke="none" /><line stroke="#e1ed5e" stroke-width="0.3" x1="172.23445277983987" x2="176.4835382374775" y1="55.19839476539836" y2="52.563006222186495" /><path d="M 173.08426987136738 54.67131705675599 a86.0,86.0 0 0,1 12.851231095245387,41.99856678651699" fill="none" id="id15" stroke="none" /><text fill="#e1ed5e" style="font-size:6.75px; font-family:Arial;" text-anchor="middle"><textPath startOffset="22.20632615414155" xlink:href="#id15">March</textPath></text><path d="M 120.28053869075195 94.5502522615342 l 20.052693518870402 -5.388521617744061 a41.76407191729604,41.76407191729604 0 0,0 0.18058718695823625,0.6958760974998458 l -20.142477037698942 5.042549094695365" fill="#ffb711" stroke="none" /><line stroke="#e1ed5e" stroke-width="0.3" x1="184.98032266829074" x2="189.97916517819016" y1="98.17113171792111" y2="98.06355123074" /><path d="M 185.9800911702706 98.14961562048488 a86.0,86.0 0 0,1 -9.607161424134198,41.387399972396054" fill="none" id="id16" stroke="none" /><text fill="#e1ed5e" style="font-size:6.75px; font-family:Arial;" text-anchor="middle"><textPath startOffset="21.466115282336823" xlink:href="#id16">April</textPath></text><path d="M 120.95626037817324 101.35467743843564 l 20.44425175303217 1.3215796184884583 a41.48692271741569,41.48692271741569 0 0,0 -0.052201298505751906,0.712245243986227 l -20.41847389586208 -1.6732979989714554" fill="#ffb310" stroke="none" /><path d="M 120.89721153311464 102.0752229133903 l 20.027462572843817 1.9888514389765362 a41.12597294922605,41.12597294922605 0 0,0 -0.07601979135328348,0.7038488544770675 l -19.99026047998948 -2.333296615338395" fill="#ffad10" stroke="none" /><line stroke="#e1ed5e" stroke-width="0.3" x1="174.80103733775053" x2="179.2010983576182" y1="140.37084112569926" y2="142.7455964860345" /><path d="M 175.68104954172406 140.8457921977663 a86.0,86.0 0 0,1 -30.038265399797805,32.042727171017184" fill="none" id="id17" stroke="none" /><text fill="#e1ed5e" style="font-size:6.75px; font-family:Arial;" text-anchor="middle"><textPath startOffset="22.206326154141568" xlink:href="#id17">May</textPath></text><path d="M 114.81725581225074 114.88116024355365 l 9.24732547826134 9.287207699588224 a34.10592443729904,34.10592443729904 0 0,0 -0.41958415250684616,0.41065140398579036 l -9.0860913733787 -9.445009206496586" fill="#ff4006" stroke="none" /><line stroke="#e1ed5e" stroke-width="0.3" x1="143.8653032363475" x2="146.44561519142675" y1="172.8068346515853" y2="177.08958963109032" /><path d="M 144.38136562736335 173.6633856474863 a86.0,86.0 0 0,1 -40.68145358897372,12.25698825130547" fill="none" id="id18" stroke="none" /><text fill="#e1ed5e" style="font-size:6.75px; font-family:Arial;" text-anchor="middle"><textPath startOffset="21.466115282336833" xlink:href="#id18">June</textPath></text><line stroke="#e1ed5e" stroke-width="0.3" x1="102.19456741930631" x2="102.32365962044197" y1="184.97166512339345" y2="189.96999836594603" /><path d="M 102.22038585953345 185.97133177190398 a86.0,86.0 0 0,1 -42.740103519485714,-10.115201625700543" fill="none" id="id19" stroke="none" /><text fill="#e1ed5e" style="font-size:6.75px; font-family:Arial;" text-anchor="middle"><textPath startOffset="22.20632615414155" xlink:href="#id19">July</textPath></text><path d="M 98.73552117531835 120.96189622390904 l -2.2115996323570406 36.66279029542097 a57.729434588349655,57.729434588349655 0 0,0 -0.9913992338921792,-0.0683726956357659 l 2.8423616270281498 -36.61928925526892" fill="#70ff27" stroke="none" /><path d="M 98.37488393609728 120.93702456842531 l -4.875348191708155 62.81107370527595 a84.0,84.0 0 0,0 -1.4406227290338331,-0.12430299088534635 l 5.955815238483529 -62.71784646211194" fill="#4dd2ff" stroke="none" /><path d="M 96.58105272829116 120.7198165907248 l -5.402039848293779 32.73793538690342 a54.180633627458306,54.180633627458306 0 0,0 -0.9188803996531102,-0.1597591357545139 l 5.964769219418939 -32.6400976726279" fill="#9cff22" stroke="none" /><path d="M 96.22490169976321 120.6578951692458 l -7.132474196392577 39.029951680248026 a60.676306737456066,60.676306737456066 0 0,0 -1.0258120914275504,-0.19659932877543954 l 7.803253902391822 -38.90139515312411" fill="#4dff2c" stroke="none" /><line stroke="#e1ed5e" stroke-width="0.3" x1="58.666819895761336" x2="56.23545636021788" y1="174.27360380694188" y2="178.64263932499728" /><path d="M 58.180547188652646 175.14741091055294 a86.0,86.0 0 0,1 -31.652253787137756,-30.449443065178592" fill="none" id="id20" stroke="none" /><text fill="#e1ed5e" style="font-size:6.75px; font-family:Arial;" text-anchor="middle"><textPath startOffset="22.20632615414155" xlink:href="#id20">August</textPath></text><path d="M 89.7882731507175 118.34994917583269 l -8.983272832324204 16.142480340371627 a39.473734390189186,39.473734390189186 0 0,0 -0.5908865276086056,-0.33552079156725184 l 9.259808126854017 -15.985456383009742" fill="#ff950d" stroke="none" /><path d="M 89.1626897886671 117.98757091392108 l -10.523690301680181 17.467030276540722 a41.39228295819935,41.39228295819935 0 0,0 -0.6071278149244204,-0.3729474914283093 l 10.82279731653691 -17.283294318284035" fill="#ffb110" stroke="none" /><path d="M 85.18274418774928 114.88116024355367 l -14.194283997367155 14.255501651843643 a41.11708292828834,41.11708292828834 0 0,0 -0.49724136571466243,-0.5037028782422621 l 14.43756598813735 -14.009058279620715" fill="#ffad10" stroke="none" /><path d="M 83.72743513129214 113.27417163493432 l -7.146701683626593 5.829845850211474 a30.22293053166829,30.22293053166829 0 0,0 -0.32537443992478376,-0.40595464241340173 l 7.245994035606238 -5.705963374219813" fill="#ff0000" stroke="none" /><path d="M 83.28015986056508 112.70617746262583 l -15.661487886534927 11.901886785731142 a40.67071711657818,40.67071711657818 0 0,0 -0.4187897310424471,-0.5610372823710968 l 15.864038884272459 -11.630536623850737" fill="#ffa70f" stroke="none" /><line stroke="#e1ed5e" stroke-width="0.3" x1="26.63291911575756" x2="22.317208475507996" y1="142.92168965132927" y2="145.44649492493687" /><path d="M 25.769776987707644 143.4266507060508 a86.0,86.0 0 0,1 -11.730757126820373,-40.83630448921669" fill="none" id="id21" stroke="none" /><text fill="#e1ed5e" style="font-size:6.75px; font-family:Arial;" text-anchor="middle"><textPath startOffset="21.46611528233685" xlink:href="#id21">September</textPath></text><line stroke="#e1ed5e" stroke-width="0.3" x1="15.007084014347285" x2="10.007500721073583" y1="101.09737516637583" y2="101.16192664675087" /><path d="M 14.007167355692545 101.11028546245083 a86.0,86.0 0 0,1 10.666146001902534,-42.60595125391555" fill="none" id="id22" stroke="none" /><text fill="#e1ed5e" style="font-size:6.75px; font-family:Arial;" text-anchor="middle"><textPath startOffset="22.20632615414155" xlink:href="#id22">October</textPath></text><line stroke="#e1ed5e" stroke-width="0.3" x1="26.266209847984243" x2="21.928928074336255" y1="57.711370442889674" y2="55.22380399835377" /><path d="M 25.398753493254645 57.213857153982495 a86.0,86.0 0 0,1 29.58750427330803,-30.492523968695096" fill="none" id="id23" stroke="none" /><text fill="#e1ed5e" style="font-size:6.75px; font-family:Arial;" text-anchor="middle"><textPath startOffset="21.46611528233685" xlink:href="#id23">November</textPath></text><line stroke="#e1ed5e" stroke-width="0.3" x1="56.762969772571076" x2="54.21961505331055" y1="26.818313649435495" y2="22.513508569990535" /><path d="M 56.25429882871897 25.957352633546506 a86.0,86.0 0 0,1 42.265352541879196,-11.944610805530505" fill="none" id="id24" stroke="none" /><text fill="#e1ed5e" style="font-size:6.75px; font-family:Arial;" text-anchor="middle"><textPath startOffset="22.20632615414155" xlink:href="#id24">December</textPath></text></svg>